<mxfile host="app.diagrams.net" modified="2023-09-19T16:21:39.081Z" agent="Mozilla/5.0 (Macintosh; Intel Mac OS X 10_15_7) AppleWebKit/537.36 (KHTML, like Gecko) Chrome/116.0.0.0 Safari/537.36" etag="wUiX1EsQERaKocSL5Og_" version="21.7.5" type="device">
  <diagram name="Page-1" id="5CmPPXNyWN-3rCusdvgG">
    <mxGraphModel dx="1434" dy="1759" grid="1" gridSize="10" guides="1" tooltips="1" connect="1" arrows="1" fold="1" page="1" pageScale="1" pageWidth="850" pageHeight="1100" math="0" shadow="0">
      <root>
        <mxCell id="0" />
        <mxCell id="1" parent="0" />
        <mxCell id="p4FwLPHUY9TuSk1tTPXq-2" value="" style="rounded=0;whiteSpace=wrap;html=1;" vertex="1" parent="1">
          <mxGeometry x="330" y="50" width="230" height="430" as="geometry" />
        </mxCell>
        <mxCell id="p4FwLPHUY9TuSk1tTPXq-3" value="&lt;p style=&quot;line-height: 160%;&quot;&gt;magic&lt;br&gt;elem&lt;br&gt;allelem&lt;br&gt;...&lt;br&gt;stack&lt;br&gt;name[16]&lt;br&gt;status&lt;br&gt;tid&lt;/p&gt;" style="rounded=0;whiteSpace=wrap;html=1;" vertex="1" parent="1">
          <mxGeometry x="330" y="310" width="230" height="170" as="geometry" />
        </mxCell>
        <mxCell id="p4FwLPHUY9TuSk1tTPXq-4" value="test_sleep() stack entry" style="rounded=0;whiteSpace=wrap;html=1;" vertex="1" parent="1">
          <mxGeometry x="330" y="150" width="230" height="30" as="geometry" />
        </mxCell>
        <mxCell id="p4FwLPHUY9TuSk1tTPXq-5" value="" style="edgeStyle=orthogonalEdgeStyle;rounded=0;orthogonalLoop=1;jettySize=auto;html=1;" edge="1" parent="1" source="p4FwLPHUY9TuSk1tTPXq-6" target="p4FwLPHUY9TuSk1tTPXq-4">
          <mxGeometry relative="1" as="geometry" />
        </mxCell>
        <mxCell id="p4FwLPHUY9TuSk1tTPXq-6" value="alarm_single() stack entry" style="rounded=0;whiteSpace=wrap;html=1;" vertex="1" parent="1">
          <mxGeometry x="330" y="80" width="230" height="30" as="geometry" />
        </mxCell>
        <mxCell id="p4FwLPHUY9TuSk1tTPXq-7" value="kernal_thread() stack entry" style="rounded=0;whiteSpace=wrap;html=1;" vertex="1" parent="1">
          <mxGeometry x="330" y="50" width="230" height="30" as="geometry" />
        </mxCell>
        <mxCell id="p4FwLPHUY9TuSk1tTPXq-8" value="• • •" style="rounded=0;whiteSpace=wrap;html=1;strokeColor=#000000;fillColor=#B0B0B0;" vertex="1" parent="1">
          <mxGeometry x="330" y="110" width="230" height="40" as="geometry" />
        </mxCell>
        <mxCell id="p4FwLPHUY9TuSk1tTPXq-9" value="" style="endArrow=classic;html=1;rounded=0;exitX=0.5;exitY=1;exitDx=0;exitDy=0;entryX=0.5;entryY=0.442;entryDx=0;entryDy=0;entryPerimeter=0;" edge="1" parent="1" source="p4FwLPHUY9TuSk1tTPXq-4" target="p4FwLPHUY9TuSk1tTPXq-2">
          <mxGeometry width="50" height="50" relative="1" as="geometry">
            <mxPoint x="290" y="620" as="sourcePoint" />
            <mxPoint x="620" y="380" as="targetPoint" />
          </mxGeometry>
        </mxCell>
        <mxCell id="p4FwLPHUY9TuSk1tTPXq-10" value="" style="strokeWidth=1;html=1;shape=mxgraph.flowchart.annotation_2;align=left;labelPosition=right;pointerEvents=1;rotation=-180;" vertex="1" parent="1">
          <mxGeometry x="560" y="50" width="60" height="130" as="geometry" />
        </mxCell>
        <mxCell id="p4FwLPHUY9TuSk1tTPXq-11" value="&lt;font style=&quot;font-size: 24px;&quot;&gt;Stack&lt;/font&gt;" style="text;html=1;strokeColor=none;fillColor=none;align=center;verticalAlign=middle;whiteSpace=wrap;rounded=0;" vertex="1" parent="1">
          <mxGeometry x="620" y="100" width="70" height="30" as="geometry" />
        </mxCell>
        <mxCell id="p4FwLPHUY9TuSk1tTPXq-12" value="" style="strokeWidth=1;html=1;shape=mxgraph.flowchart.annotation_2;align=left;labelPosition=right;pointerEvents=1;" vertex="1" parent="1">
          <mxGeometry x="280" y="50" width="50" height="430" as="geometry" />
        </mxCell>
        <mxCell id="p4FwLPHUY9TuSk1tTPXq-13" value="&lt;font style=&quot;font-size: 24px;&quot;&gt;One Page (4kb)&lt;/font&gt;" style="text;html=1;strokeColor=none;fillColor=none;align=center;verticalAlign=middle;whiteSpace=wrap;rounded=0;" vertex="1" parent="1">
          <mxGeometry x="90" y="250" width="190" height="30" as="geometry" />
        </mxCell>
        <mxCell id="p4FwLPHUY9TuSk1tTPXq-14" value="struct&lt;br&gt;thread" style="text;html=1;strokeColor=none;fillColor=none;align=center;verticalAlign=middle;whiteSpace=wrap;rounded=0;" vertex="1" parent="1">
          <mxGeometry x="330" y="380" width="60" height="30" as="geometry" />
        </mxCell>
      </root>
    </mxGraphModel>
  </diagram>
</mxfile>
